<svg version="1.1" id="Layer_1" xmlns="http://www.w3.org/2000/svg" xmlns:xlink="http://www.w3.org/1999/xlink" x="0px" y="0px"
	 width="100%" viewBox="0 0 128 128" enable-background="new 0 0 128 128" xml:space="preserve">
<path fill="#000000" opacity="1.000000" stroke="none" 
	d="
M22.000000,1.000000 
	C50.354229,1.000000 78.708458,1.000000 107.667465,1.405293 
	C108.514832,3.051442 108.968254,4.292100 108.969421,5.533184 
	C109.006607,45.129990 109.011368,84.726860 108.957748,124.323631 
	C108.955643,125.882843 108.333328,127.441231 108.000000,129.000000 
	C106.285645,129.000000 104.571281,129.000000 102.358353,128.668625 
	C89.678108,116.101494 77.496422,103.865738 66.169472,92.488510 
	C53.170612,104.922737 40.585304,116.961365 28.000000,129.000000 
	C26.285643,129.000000 24.571283,129.000000 22.292339,128.594696 
	C21.485172,126.948547 21.031755,125.707893 21.030590,124.466805 
	C20.993401,84.870003 20.988630,45.273136 21.042246,5.676369 
	C21.044357,4.117150 21.666668,2.558771 22.000000,1.000000 
z"/>
<path fill="#FFFFFF" opacity="1.000000" stroke="none" 
	d="
M21.531088,1.000000 
	C21.666668,2.558771 21.044357,4.117150 21.042246,5.676369 
	C20.988630,45.273136 20.993401,84.870003 21.030590,124.466805 
	C21.031755,125.707893 21.485172,126.948547 21.863876,128.594696 
	C15.018083,129.000000 8.036165,129.000000 1.055576,128.999985 
	C1.056905,86.333298 1.056905,43.666622 1.056905,1.000000 
	C7.763266,1.000000 14.412721,1.000000 21.531088,1.000000 
z"/>
<path fill="#FFFFFF" opacity="1.000000" stroke="none" 
	d="
M108.468910,129.000000 
	C108.333328,127.441231 108.955643,125.882843 108.957748,124.323631 
	C109.011368,84.726860 109.006607,45.129990 108.969421,5.533184 
	C108.968254,4.292100 108.514832,3.051442 108.136124,1.405293 
	C114.981918,1.000000 121.963837,1.000000 128.944427,1.000012 
	C128.943085,43.666698 128.943085,86.333374 128.943085,129.000000 
	C122.236717,129.000000 115.587273,129.000000 108.468910,129.000000 
z"/>
<path fill="#FFFFFF" opacity="1.000000" stroke="none" 
	d="
M28.468657,129.000000 
	C40.585304,116.961365 53.170612,104.922737 66.169472,92.488510 
	C77.496422,103.865738 89.678108,116.101494 101.929893,128.668625 
	C77.645775,129.000000 53.291542,129.000000 28.468657,129.000000 
z"/>
</svg>